PathFileType	4	(X/Y/Z)	Run_200 01
DataRate	CameraRate	NumFrames	NumMarkers	Units	OrigDataRate	OrigDataStartFrame	OrigNumFrames
120	120	8	42	mm	120	666	128
Frame#	Time	LASI			RASI			LPSI			RPSI			RTH1			RTH2			RTH3			LTH1			LTH2			LTH3			RTB2			RTB3			LTB1			LTB2			LTB3			RCAL			RTOE			RMT5			LCAL			LTOE			LMT5			LACR			RACR			CLAV			C7			RUA1			RUA2			RUA3			RLEL			RMEL			LUA1			LUA2			LUA3			LLEL			LMEL			RFAsuperior			RFAradius			RFAulna			LFAsuperior			LFAradius			LFAulna			RTB1		
		X1	Y1	Z1	X2	Y2	Z2	X3	Y3	Z3	X4	Y4	Z4	X5	Y5	Z5	X6	Y6	Z6	X7	Y7	Z7	X8	Y8	Z8	X9	Y9	Z9	X10	Y10	Z10	X11	Y11	Z11	X12	Y12	Z12	X13	Y13	Z13	X14	Y14	Z14	X15	Y15	Z15	X16	Y16	Z16	X17	Y17	Z17	X18	Y18	Z18	X19	Y19	Z19	X20	Y20	Z20	X21	Y21	Z21	X22	Y22	Z22	X23	Y23	Z23	X24	Y24	Z24	X25	Y25	Z25	X26	Y26	Z26	X27	Y27	Z27	X28	Y28	Z28	X29	Y29	Z29	X30	Y30	Z30	X31	Y31	Z31	X32	Y32	Z32	X33	Y33	Z33	X34	Y34	Z34	X35	Y35	Z35	X36	Y36	Z36	X37	Y37	Z37	X38	Y38	Z38	X39	Y39	Z39	X40	Y40	Z40	X41	Y41	Z41	X42	Y42	Z42	

666	  5.550000	455.011825	988.026051	-464.214236	451.573396	978.087666	-207.586486	279.286013	994.936697	-369.835027	281.243712	994.933808	-284.671301	449.581321	795.022692	-173.217724	542.361652	697.673807	-188.547178	500.719373	563.516397	-176.206268	425.516142	844.653843	-509.589842	492.846467	738.607295	-498.633116	445.987828	592.544707	-487.080480	363.722499	401.295292	-181.742772	273.428537	334.460391	-246.279378	487.321036	354.904299	-407.173149	413.908159	263.012039	-451.018944	402.211547	187.272785	-372.345100	116.119419	388.733163	-271.543429	169.123443	178.203557	-242.592063	134.099390	217.667302	-156.926518	253.487703	100.299193	-369.157721	467.521856	 73.231103	-368.304784	439.632661	 58.645446	-454.794912	451.630308	1400.991328	-550.691993	432.577152	1433.918699	-166.343445	536.394497	1385.565373	-323.117572	402.353310	1479.975538	-368.842909	391.716137	1332.639383	-100.028294	395.695282	1261.316542	-100.075405	297.772315	1270.908144	-61.873289	316.612835	1182.962390	-23.674543	253.323174	1168.900617	-85.459346	424.382484	1326.579669	-607.212826	359.785908	1261.733225	-601.522905	416.254868	1240.100933	-653.790611	401.937105	1140.879578	-701.891340	348.973321	1092.455285	-646.672822	387.712847	1150.474267	-61.703201	497.587871	1102.525043	-177.221424	465.954189	1044.737821	-154.132065	469.365761	1143.616927	-673.968560	584.839440	1131.390441	-543.498955	596.336052	1075.984722	-580.851717	442.781963	388.531080	-230.400076	
667	  5.558333	453.545231	989.041669	-463.851600	451.387848	980.246152	-209.073318	278.076506	996.658041	-370.697290	280.764023	996.107986	-285.455025	451.266219	797.127164	-173.210694	547.602446	702.425364	-189.262859	510.007540	567.830612	-176.473898	421.428979	845.489117	-509.911035	486.020760	737.871380	-499.389545	436.447103	593.079728	-487.456028	377.515665	403.493717	-181.086741	288.676395	334.275332	-244.689138	473.412662	354.515848	-407.520692	398.952684	263.275580	-451.075264	386.788578	187.491135	-372.853128	128.654818	385.274983	-267.526432	188.921080	176.063412	-242.887253	153.332515	212.611067	-156.519695	237.109097	100.863039	-369.475217	450.850663	 72.795534	-369.057584	422.769875	 58.519589	-455.138085	452.859202	1401.416468	-550.028009	429.689330	1435.602825	-166.108845	535.795380	1387.117515	-321.762851	402.001281	1481.234924	-369.129726	386.352565	1335.167163	-100.062826	389.864490	1263.786930	-99.434345	290.782046	1274.030631	-64.644170	307.539827	1185.929123	-24.859642	246.592492	1172.441456	-88.645500	427.320555	1326.330702	-606.410773	364.488309	1259.404901	-600.040783	421.128400	1239.704122	-653.004582	409.963362	1139.468082	-700.896931	358.471702	1090.232624	-646.230734	379.305424	1151.365256	-59.853066	492.600050	1101.551776	-172.132983	459.052179	1044.516876	-149.562994	477.065808	1142.666729	-672.225501	591.531024	1131.602408	-539.766371	604.900471	1077.390797	-578.243294	456.154895	391.863080	-230.445975	
668	  5.566667	452.382692	990.471101	-463.812450	451.611900	983.115573	-210.451307	277.489673	999.059448	-371.268488	280.567942	998.220881	-286.206018	453.404713	800.436546	-173.099281	552.506817	708.123806	-189.976454	518.509433	573.321555	-176.931542	417.180437	846.782105	-510.020149	479.661374	738.087455	-499.212810	427.018858	594.072384	-487.505140	390.959516	405.688223	-180.615215	303.911792	333.652412	-243.580727	458.818263	354.739448	-407.164839	383.691755	264.072277	-450.751060	371.153316	188.022834	-373.321261	141.259639	380.170188	-263.961614	209.705808	172.920195	-243.432439	173.284101	206.347553	-156.556865	220.623883	101.578830	-369.666949	434.124660	 72.487677	-369.384797	405.886777	 58.454668	-455.412157	454.227435	1403.141130	-549.111394	426.888272	1438.219033	-165.708109	535.197111	1389.730663	-320.143907	401.809976	1483.360845	-368.993931	381.140123	1338.771652	-99.936287	383.960174	1267.384493	-98.661167	283.941667	1278.346188	-66.867340	298.356501	1190.034509	-25.766552	240.096668	1177.233456	-91.767791	430.588678	1327.459614	-605.472913	368.792706	1259.137146	-599.059303	425.515278	1240.672650	-651.929917	416.821909	1139.445858	-699.433956	367.439760	1089.920178	-644.947953	370.765814	1153.892785	-57.605417	487.644199	1103.557551	-166.547041	452.657226	1046.964568	-145.372557	483.750426	1143.284949	-670.327307	597.051985	1134.383711	-535.787364	612.318086	1081.021901	-574.578779	469.318672	395.764243	-230.600306	
669	  5.575000	451.638682	992.246484	-464.303917	452.204099	986.627885	-211.516658	277.547518	1002.124016	-371.631127	280.623855	1001.296803	-286.859664	455.956187	804.816877	-172.952456	557.054996	714.623395	-190.648093	526.196306	579.712735	-177.498175	413.002242	848.472808	-509.910927	473.642959	738.731572	-498.258682	417.219526	595.413472	-486.957728	403.987035	407.635922	-180.357075	318.970706	332.589866	-243.167947	443.663653	355.314731	-406.303491	368.090138	265.301245	-450.178410	355.311708	188.841497	-373.709191	153.894977	373.473125	-261.002271	231.313149	168.842143	-244.472553	194.068133	199.176249	-156.968058	203.683248	102.508106	-369.701370	417.329728	 72.337689	-369.382927	388.981689	 58.418824	-455.614745	455.817968	1406.113946	-547.909974	424.188834	1441.698159	-165.182832	534.583425	1393.311514	-318.265371	401.743404	1486.308210	-368.458847	376.090307	1343.406740	-99.702208	378.172459	1272.095257	-97.712659	277.317100	1283.785910	-68.656174	289.486518	1195.408302	-26.515988	233.828468	1183.178398	-94.649240	434.031425	1329.979399	-604.313741	372.586834	1260.903273	-598.483455	429.554611	1242.979324	-650.469146	422.823526	1141.063222	-697.553943	375.421606	1091.396623	-643.127507	362.529365	1158.427833	-55.447839	482.927650	1108.138133	-160.629557	446.916135	1051.748278	-141.494358	489.514551	1145.873890	-667.904628	601.372734	1139.446716	-531.516889	618.363532	1086.531243	-569.893430	482.191035	400.073871	-230.874346	
670	  5.583333	451.339998	994.321132	-465.137268	453.086210	990.793118	-212.295807	277.969669	1005.781200	-371.925462	280.837275	1005.166640	-287.424515	458.720117	810.087228	-172.859997	561.215966	721.785821	-191.312903	533.083586	586.692956	-178.122369	409.170301	850.503482	-509.586207	467.816883	739.456949	-496.778029	406.827662	597.179958	-485.711754	416.582200	409.155934	-180.343222	333.812997	331.077157	-243.448055	428.106151	356.223573	-405.118431	352.198533	266.964723	-449.466394	339.320920	190.001597	-373.940454	166.622279	365.281277	-258.732318	253.574261	163.962858	-246.155734	215.738042	191.375412	-157.689897	186.132855	103.762070	-369.594473	400.538822	 72.297061	-369.329747	372.013625	 58.409304	-455.734044	457.629973	1410.253242	-546.443705	421.543944	1445.927872	-164.602894	533.945526	1397.738002	-316.174196	401.749795	1489.989430	-367.605909	371.214829	1348.974182	-99.410327	372.684773	1277.795745	-96.594262	271.035206	1290.194228	-70.150227	281.270149	1202.034316	-27.204669	227.767678	1190.030294	-97.141969	437.476398	1333.804862	-602.908467	375.896053	1264.461150	-598.112810	433.419626	1246.554535	-648.593815	428.219723	1144.379782	-695.388867	381.910361	1094.488280	-641.015704	354.933191	1164.950728	-53.695425	478.558796	1114.701403	-154.669305	441.840769	1058.346787	-137.855822	494.447341	1150.406061	-664.804392	604.566965	1146.367220	-526.921569	622.985278	1093.515370	-564.371595	494.629956	404.649133	-231.336317	
671	  5.591667	451.484990	996.646145	-465.941714	454.153437	995.573415	-212.892818	278.495003	1009.954671	-372.277446	281.172551	1009.621587	-287.903837	461.484149	816.075324	-172.826853	564.996028	729.478743	-192.018827	539.208525	593.984348	-178.780896	405.893603	852.786509	-509.053223	462.095438	740.187033	-494.999518	395.964924	599.494261	-483.855225	428.762001	410.174607	-180.586524	348.507204	329.116983	-244.209748	412.338382	357.608373	-403.728896	336.118806	269.135763	-448.664452	323.266309	191.587379	-373.924423	179.613491	355.691315	-257.195964	276.443905	158.517690	-248.276949	238.286547	183.182168	-158.640960	168.296864	105.503119	-369.450330	383.913854	 72.297164	-369.465427	354.931168	 58.460571	-455.733948	459.594078	1415.422795	-544.767572	418.911651	1450.763465	-164.051014	533.282668	1402.868196	-313.948145	401.793716	1494.254084	-366.509433	366.570208	1355.325608	-99.094708	367.606663	1284.275967	-95.400700	265.251024	1297.351943	-71.460820	273.861668	1209.687685	-27.846223	221.949754	1197.477487	-99.190060	440.789780	1338.775146	-601.296860	378.858829	1269.471025	-597.777165	437.245353	1251.251270	-646.323909	433.078944	1149.164343	-693.031576	386.673186	1098.999257	-638.775441	348.107773	1173.019579	-52.352253	474.533156	1122.608578	-148.951502	437.357598	1066.171493	-134.381533	498.650356	1156.459153	-661.183716	606.767007	1154.706887	-522.046570	626.283807	1101.570986	-558.280443	506.506788	409.380644	-232.028594	
672	  5.600000	452.089475	999.144813	-466.467215	455.298822	1000.825972	-213.366029	279.144127	1014.564075	-372.795900	281.712683	1014.510978	-288.294863	464.152648	822.629366	-172.768546	568.443293	737.505555	-192.780224	544.610155	601.370071	-179.449552	403.273385	855.245675	-508.324209	456.465793	741.048025	-493.072698	384.987370	602.431975	-481.609615	440.548190	410.717450	-181.070620	363.184480	326.725923	-245.165959	396.576030	359.655310	-402.208604	319.971897	271.955610	-447.795375	307.263213	193.682604	-373.603558	193.099439	344.778314	-256.422156	300.040465	152.785104	-250.329584	261.655139	174.786746	-159.714798	150.931844	107.927480	-369.458686	367.611855	 72.299872	-369.808597	337.733509	 58.602624	-455.575966	461.625588	1421.423513	-542.935535	416.297972	1456.046411	-163.587439	532.599080	1408.545844	-311.659790	401.856636	1498.924989	-365.223028	362.254982	1362.258704	-98.765581	362.981094	1291.280537	-94.231409	260.067423	1305.006642	-72.637864	267.241262	1217.994270	-28.379333	216.485187	1205.241774	-100.830738	443.899726	1344.686829	-599.545659	381.635387	1275.610903	-597.400641	441.082877	1256.850565	-643.711798	437.332969	1154.988823	-690.502788	389.884556	1104.710075	-636.530273	342.009012	1181.975187	-51.183551	470.783983	1131.271782	-143.645447	433.389083	1074.685787	-130.980143	502.229045	1163.452260	-657.388056	608.118523	1164.069891	-517.026542	628.424747	1110.323255	-551.869257	517.767728	414.174014	-232.918710	
673	  5.608333	453.160467	1001.722544	-466.716693	456.446853	1006.364017	-213.732466	280.167060	1019.508028	-373.566628	282.599857	1019.760543	-288.635808	466.745600	829.573745	-172.624468	571.606251	745.574617	-193.581865	549.309647	608.694909	-180.080632	401.332569	857.863586	-507.419692	450.975580	742.222229	-491.062023	374.285088	606.009738	-479.234114	451.949392	410.859650	-181.744667	377.987373	323.909265	-246.117163	381.036825	362.506133	-400.631129	303.916583	275.611956	-446.914625	291.469731	196.365856	-373.015552	207.276212	332.609215	-256.427031	324.539323	146.970529	-251.832339	285.743192	166.332525	-160.793098	134.826610	111.227042	-369.805903	351.640518	 72.323948	-370.135909	320.517513	 58.821328	-455.261057	463.683368	1428.012768	-540.990330	413.752836	1461.621436	-163.209770	531.899939	1414.605278	-309.341334	401.930458	1503.859725	-363.809421	358.363863	1369.526051	-98.410331	358.828943	1298.552634	-93.086041	255.457217	1312.906727	-73.656824	261.303707	1226.560030	-28.717456	211.515638	1213.122129	-102.140419	446.802888	1351.313692	-597.718211	384.330452	1282.620072	-596.994553	444.900590	1263.112354	-640.874367	440.931015	1161.422149	-687.849720	391.990750	1111.370556	-634.403301	336.521118	1191.197933	-49.915558	467.264430	1140.217283	-138.764198	429.902884	1083.473124	-127.555355	505.265198	1170.873774	-653.742511	608.743547	1174.085646	-512.049762	629.557769	1119.440841	-545.305738	528.422457	418.923226	-233.925173	
